<?xml version="1.0" encoding="iso-8859-1"?>
<!-- Generator: Adobe Illustrator 26.0.0, SVG Export Plug-In . SVG Version: 6.00 Build 0)  -->
<svg version="1.1" id="Layer_1" xmlns="http://www.w3.org/2000/svg" xmlns:xlink="http://www.w3.org/1999/xlink" x="0px" y="0px"
	 viewBox="0 0 500 500" style="enable-background:new 0 0 500 500;" xml:space="preserve">
<g>
	<g>
		<path style="fill:#FFF238;" d="M250.078,9C109.666,9,14.436,87.76,14.436,204.374c0,112.948,90.653,191.855,235.641,191.855V491
			c130.646-37.85,235.486-159.487,235.486-286.63C485.56,87.76,390.179,9,250.078,9z"/>
		<path d="M367.911,145.414c-33.118,0-56.773,23.958-56.773,57.236c0.61,11.602,2.901,21.979,12.667,48.231l17.858,48.08
			l24.876-8.087l-12.667-34.802c4.883,2.29,11.446,3.511,17.247,3.511c29.148,0,53.565-24.572,53.565-56.933
			C424.684,169.376,400.57,145.414,367.911,145.414z M367.608,232.716c-16.637,0-28.997-12.36-28.997-29.759
			c0-17.247,12.36-29.919,28.997-29.919c16.784,0,29.456,12.671,29.456,29.919c0,17.399-12.671,29.763-29.456,29.763V232.716z
			 M168.143,152.288l-27.473,8.996l3.511,72.349c-9.918,4.273-14.191-0.307-20.451-9.922l-30.828-47.776l-28.083,9.308
			l36.174,55.863c9.914,14.654,26.707,22.438,44.569,15.568c1.065,13.741-4.887,21.524-15.879,21.524
			c-6.87,0-14.347-3.663-17.858-11.754l-23.958,8.091c12.516,25.642,31.439,28.235,41.508,28.235
			c21.975,0,44.716-16.178,43.036-50.98l-4.269-99.51V152.288z M242.005,233.633c-9.308,0-18.468-3.814-23.352-12.364l80.735-26.862
			c-3.814-29.456-26.248-48.997-56.466-48.997c-32.967,0-56.929,23.966-56.929,57.24c0,32.971,23.958,56.933,56.929,56.933
			c32.504,0,56.466-23.352,57.232-55.405l-29.001,9.767C268.409,226.616,254.673,233.633,242.005,233.633z M243.685,170.138
			c8.849,0,17.854,3.515,23.044,12.671l-53.573,17.395c0-17.706,13.282-30.07,30.529-30.07V170.138z"/>
	</g>
</g>
</svg>
