<svg xmlns="http://www.w3.org/2000/svg" width="50" height="50" viewBox="0 0 50 50"><rect width="100%" height="100%" fill="#DDDDDD"/><path fill="#999999" d="M10.295 25.045h.61q.22 0 .38-.05.17-.06.28-.16.11-.11.16-.25.05-.15.05-.34 0-.17-.05-.31t-.16-.24-.27-.15q-.17-.05-.39-.05h-.61zm-.8-2.18h1.41q.43 0 .75.1.32.11.52.29.21.18.31.44.1.25.1.55 0 .32-.1.58-.11.26-.32.45t-.53.3q-.31.1-.73.1h-.61v1.53h-.8zm3.6-.12h.74v4.46h-.74zm3.11 3.66v-.51q-.32.01-.54.05t-.35.1q-.13.07-.19.15-.06.09-.06.18 0 .2.12.28.11.09.3.09.23 0 .39-.08.17-.09.33-.26m-1.57-1.61-.13-.24q.53-.49 1.28-.49.27 0 .48.09.22.09.36.25.15.16.23.38.07.21.07.48v1.94h-.33q-.11 0-.17-.03-.05-.03-.09-.13l-.06-.22q-.12.1-.23.18t-.23.14q-.12.05-.26.08-.13.03-.3.03-.19 0-.36-.05-.16-.06-.28-.16-.12-.11-.19-.26-.07-.16-.07-.37 0-.11.04-.23.04-.11.13-.22.09-.1.23-.2.14-.09.35-.16.2-.07.48-.11.27-.05.62-.05v-.18q0-.31-.13-.46t-.38-.15q-.18 0-.3.04t-.21.1l-.16.09q-.08.04-.17.04-.08 0-.13-.04t-.09-.09m5.39-.29-.2.27q-.03.04-.06.07-.03.02-.09.02t-.11-.03q-.06-.04-.13-.08-.08-.04-.18-.08-.1-.03-.26-.03-.19 0-.34.07t-.24.2q-.1.13-.15.32t-.05.43.05.43q.06.19.16.33.1.13.24.19.14.07.31.07.18 0 .29-.04.11-.05.19-.1.07-.05.13-.09.05-.05.12-.05.09 0 .14.07l.21.27q-.12.14-.27.24-.14.1-.3.16-.15.06-.32.08-.16.02-.32.02-.29 0-.54-.1-.25-.11-.44-.31-.19-.21-.3-.5-.11-.3-.11-.67 0-.34.1-.63t.29-.5q.19-.22.47-.34.27-.12.64-.12.34 0 .6.11.26.12.47.32m1.08.81h1.39q0-.15-.04-.27-.04-.13-.12-.23-.08-.09-.2-.15-.13-.06-.29-.06-.32 0-.51.19-.18.18-.23.52m1.89.44h-1.91q.02.24.08.41.07.18.18.29t.25.17q.15.05.33.05t.31-.04.23-.09.17-.1q.08-.04.15-.04.09 0 .13.07l.22.27q-.13.14-.28.24t-.32.16-.34.08-.33.02q-.32 0-.6-.1-.28-.11-.48-.32-.2-.2-.32-.51t-.12-.71q0-.32.1-.6.11-.28.3-.48.19-.21.46-.33.28-.12.62-.12.29 0 .54.1.24.09.42.27t.28.44.1.59q0 .17-.04.23-.03.05-.13.05m1.47-3.01v1.71q.18-.17.39-.27.22-.11.51-.11.25 0 .45.09.19.08.32.24.13.15.2.37.07.21.07.47v1.96h-.74v-1.96q0-.28-.13-.44-.13-.15-.4-.15-.19 0-.36.09-.16.08-.31.23v2.23h-.75v-4.46zm4 1.33q.34 0 .62.11.28.12.48.32t.31.5q.11.29.11.66 0 .36-.11.65-.11.3-.31.51-.2.2-.48.31t-.62.11-.63-.11q-.28-.11-.48-.31-.2-.21-.31-.51-.11-.29-.11-.65 0-.37.11-.66.11-.3.31-.5t.48-.32q.29-.11.63-.11m0 2.6q.38 0 .57-.25.18-.26.18-.76t-.18-.76q-.19-.26-.57-.26-.39 0-.58.26-.18.27-.18.76 0 .5.18.76.19.25.58.25m2.09-3.93h.75v4.46h-.75zm3.42 3.55v-1.38q-.13-.15-.28-.22-.14-.06-.32-.06-.16 0-.3.06-.13.07-.23.19-.1.13-.15.33-.05.19-.05.46t.05.46q.04.18.12.3t.2.17q.12.06.26.06.23 0 .39-.1.16-.09.31-.27m0-3.55h.74v4.46h-.45q-.15 0-.19-.14l-.06-.29q-.19.21-.43.34t-.56.13q-.25 0-.46-.1-.21-.11-.37-.3-.15-.2-.23-.5-.08-.29-.08-.67 0-.34.09-.64.09-.29.27-.51.17-.21.41-.33.25-.13.55-.13.26 0 .44.09.18.08.33.22zm2.06 2.57h1.39q0-.15-.04-.27-.04-.13-.12-.23-.08-.09-.2-.15-.13-.06-.29-.06-.32 0-.51.19-.18.18-.23.52m1.89.44h-1.91q.02.24.09.41.06.18.17.29t.26.17q.14.05.32.05t.32-.04q.13-.04.22-.09.1-.05.17-.1.08-.04.15-.04.09 0 .13.07l.22.27q-.13.14-.28.24t-.32.16q-.16.06-.34.08-.17.02-.33.02-.32 0-.6-.1-.27-.11-.48-.32-.2-.2-.32-.51t-.12-.71q0-.32.11-.6.1-.28.29-.48.19-.21.46-.33.28-.12.62-.12.29 0 .54.1.25.09.42.27.18.18.28.44t.1.59q0 .17-.04.23-.03.05-.13.05m1.38-1.44.04.35q.15-.28.35-.44.19-.16.46-.16.22 0 .35.1l-.05.55q-.02.06-.04.08-.03.02-.08.02t-.13-.01q-.09-.02-.18-.02-.12 0-.22.04-.09.03-.17.1t-.13.16q-.06.1-.11.22v1.9h-.74v-3.08h.43q.11 0 .16.04.04.04.06.15"/></svg>